<?xml version="1.0" standalone="no"?>
<!DOCTYPE svg PUBLIC "-//W3C//DTD SVG 20010904//EN"
 "http://www.w3.org/TR/2001/REC-SVG-20010904/DTD/svg10.dtd">
<svg version="1.0" xmlns="http://www.w3.org/2000/svg"
 width="759.000000pt" height="759.000000pt" viewBox="0 0 759.000000 759.000000"
 preserveAspectRatio="xMidYMid meet">
<metadata>
Created by potrace 1.11, written by Peter Selinger 2001-2013
</metadata>
<g transform="translate(0.000000,759.000000) scale(0.100000,-0.100000)"
fill="#000000" stroke="none">
<path d="M337 7560 c10 -17 190 -305 400 -641 l383 -611 -91 -106 c-274 -317
-482 -656 -636 -1037 -38 -93 -93 -249 -109 -305 -2 -8 -15 -55 -29 -105 -22
-80 -48 -192 -61 -265 -12 -68 -24 -139 -29 -175 -4 -22 -8 -51 -10 -65 -2
-14 -7 -61 -10 -105 -4 -44 -9 -96 -11 -115 -5 -48 -5 -436 1 -485 2 -22 7
-69 10 -105 7 -74 14 -134 20 -170 2 -14 7 -45 10 -70 4 -25 13 -76 21 -115
16 -72 19 -88 30 -140 10 -52 64 -236 96 -330 134 -394 343 -779 597 -1095
102 -128 102 -127 138 -166 l32 -34 -118 -187 c-302 -481 -608 -966 -658
-1043 l-54 -85 1088 -3 c598 -1 1093 0 1099 2 7 3 49 72 95 155 45 83 87 151
93 151 6 0 40 -9 76 -20 156 -49 435 -112 550 -125 75 -9 147 -18 161 -20 43
-8 268 -18 394 -17 148 1 315 11 440 27 49 6 196 30 245 40 14 3 41 8 60 11
92 17 380 98 451 128 19 8 27 -5 153 -235 17 -31 38 -66 46 -78 l15 -21 1082
2 1083 3 -101 160 c-55 88 -111 176 -124 195 -22 35 -387 612 -435 690 -14 22
-61 97 -105 167 -44 70 -81 132 -82 138 -2 5 16 30 38 55 22 25 53 61 67 80
15 19 30 37 33 40 14 12 159 216 209 296 175 275 325 603 414 902 38 125 91
345 101 417 3 22 10 63 15 90 5 28 12 79 16 115 3 36 7 76 10 90 15 93 20 396
10 560 -10 154 -25 310 -31 320 -2 3 -6 28 -9 55 -4 28 -13 82 -21 120 -8 39
-16 81 -18 95 -11 60 -62 245 -99 355 -152 454 -368 841 -673 1204 -38 46 -76
91 -83 101 -14 19 -8 29 391 665 359 571 417 664 417 669 0 4 -490 6 -1089 6
l-1089 0 -53 -97 c-61 -112 -99 -181 -115 -207 -10 -16 -15 -16 -90 8 -67 21
-136 41 -179 52 -41 10 -254 56 -270 58 -11 2 -33 6 -50 9 -16 3 -48 9 -70 12
-22 2 -56 7 -75 10 -35 5 -128 13 -225 20 -76 6 -403 6 -465 0 -198 -17 -203
-18 -325 -36 -97 -14 -204 -36 -305 -60 -47 -12 -92 -22 -100 -24 -8 -2 -50
-14 -93 -28 l-78 -25 -25 46 c-14 26 -52 94 -83 152 l-58 105 -1087 3 -1088 2
19 -30z m3598 -904 c184 -8 250 -17 480 -61 53 -10 150 -38 158 -45 4 -4 -23
-63 -61 -131 -38 -68 -90 -164 -117 -214 -26 -49 -51 -94 -55 -100 -4 -5 -27
-46 -50 -90 -24 -44 -89 -163 -145 -265 -56 -102 -105 -192 -109 -200 -4 -8
-12 -24 -19 -35 -17 -29 -104 -186 -152 -278 -23 -43 -46 -79 -51 -79 -5 0
-13 8 -19 18 -5 11 -29 53 -51 94 -23 41 -56 102 -74 135 -18 33 -47 87 -65
120 -45 83 -152 282 -210 390 -27 50 -56 104 -65 120 -9 17 -43 80 -75 140
-32 61 -61 115 -65 120 -4 6 -33 60 -65 120 -32 61 -61 114 -66 120 -17 17 -9
33 19 38 15 2 68 14 117 25 50 11 110 23 135 26 88 11 135 18 160 22 14 2 84
7 155 10 72 4 131 8 133 9 2 2 11 1 20 -1 9 -1 71 -5 137 -8z m-2202 -1328
c90 -145 300 -481 467 -748 166 -267 317 -507 335 -535 48 -75 135 -216 135
-220 0 -2 -68 -111 -151 -242 -83 -131 -168 -264 -188 -296 -71 -114 -304
-483 -351 -557 -26 -41 -134 -212 -240 -380 -106 -168 -195 -309 -199 -313 -4
-4 -39 36 -77 90 -257 359 -424 762 -498 1198 -14 83 -18 117 -31 260 -6 66
-7 358 -1 415 3 25 8 72 11 105 9 92 27 205 49 310 60 288 206 642 379 915 58
91 183 260 192 260 2 0 77 -118 168 -262z m4494 -17 c73 -117 138 -238 187
-351 35 -80 43 -99 65 -152 33 -79 108 -341 125 -433 22 -118 36 -206 41 -265
13 -139 15 -188 16 -290 2 -107 -8 -296 -16 -340 -2 -10 -6 -43 -9 -72 -4 -29
-8 -64 -11 -78 -3 -14 -10 -52 -15 -85 -49 -277 -185 -637 -343 -905 -50 -84
-178 -272 -183 -268 -8 10 -579 918 -588 935 -6 13 -14 23 -18 23 -5 0 -8 4
-8 9 0 5 -55 96 -123 202 -221 347 -367 579 -367 584 0 2 76 125 168 272 92
147 199 318 237 378 37 61 81 130 97 155 43 69 202 323 344 550 71 113 152
243 182 289 l54 83 53 -72 c29 -40 79 -116 112 -169z m-2144 -3266 c134 -242
256 -460 269 -485 114 -204 278 -501 278 -505 0 -7 -181 -57 -253 -69 -15 -3
-35 -7 -45 -10 -9 -2 -39 -7 -67 -11 -27 -3 -61 -7 -75 -10 -144 -25 -402 -34
-590 -21 -136 10 -210 20 -385 52 -51 9 -176 42 -182 48 -3 3 10 33 30 68 19
35 195 352 391 706 196 353 356 646 356 650 0 8 22 33 26 29 1 -1 112 -200
247 -442z"/>
</g>
</svg>
